<mxfile host="app.diagrams.net" modified="2024-03-12T03:10:39.983Z" agent="Mozilla/5.0 (Macintosh; Intel Mac OS X 10_15_7) AppleWebKit/537.36 (KHTML, like Gecko) Chrome/122.0.0.0 Safari/537.36" etag="Dfu4_P14b1w6lhEuGyDt" version="23.1.0" type="github">
  <diagram name="第 1 页" id="pax3oEcvjZkvkxBaptEk">
    <mxGraphModel dx="2261" dy="786" grid="1" gridSize="10" guides="1" tooltips="1" connect="1" arrows="1" fold="1" page="1" pageScale="1" pageWidth="827" pageHeight="1169" math="0" shadow="0">
      <root>
        <mxCell id="0" />
        <mxCell id="1" parent="0" />
        <mxCell id="kgx6SNhdby_C-QN0kG7P-1" value="ZLMRunner" style="shape=umlLifeline;perimeter=lifelinePerimeter;whiteSpace=wrap;html=1;container=1;dropTarget=0;collapsible=0;recursiveResize=0;outlineConnect=0;portConstraint=eastwest;newEdgeStyle={&quot;curved&quot;:0,&quot;rounded&quot;:0};" vertex="1" parent="1">
          <mxGeometry x="60" y="110" width="100" height="610" as="geometry" />
        </mxCell>
        <mxCell id="kgx6SNhdby_C-QN0kG7P-9" value="" style="html=1;points=[[0,0,0,0,5],[0,1,0,0,-5],[1,0,0,0,5],[1,1,0,0,-5]];perimeter=orthogonalPerimeter;outlineConnect=0;targetShapes=umlLifeline;portConstraint=eastwest;newEdgeStyle={&quot;curved&quot;:0,&quot;rounded&quot;:0};" vertex="1" parent="kgx6SNhdby_C-QN0kG7P-1">
          <mxGeometry x="45" y="130" width="10" height="130" as="geometry" />
        </mxCell>
        <mxCell id="kgx6SNhdby_C-QN0kG7P-10" value="self call" style="html=1;align=left;spacingLeft=2;endArrow=block;rounded=0;edgeStyle=orthogonalEdgeStyle;curved=0;rounded=0;" edge="1" target="kgx6SNhdby_C-QN0kG7P-9" parent="kgx6SNhdby_C-QN0kG7P-1" source="kgx6SNhdby_C-QN0kG7P-1">
          <mxGeometry relative="1" as="geometry">
            <mxPoint x="55" y="130" as="sourcePoint" />
            <Array as="points">
              <mxPoint x="110" y="130" />
              <mxPoint x="110" y="190" />
            </Array>
          </mxGeometry>
        </mxCell>
        <mxCell id="kgx6SNhdby_C-QN0kG7P-26" value="" style="html=1;points=[[0,0,0,0,5],[0,1,0,0,-5],[1,0,0,0,5],[1,1,0,0,-5]];perimeter=orthogonalPerimeter;outlineConnect=0;targetShapes=umlLifeline;portConstraint=eastwest;newEdgeStyle={&quot;curved&quot;:0,&quot;rounded&quot;:0};" vertex="1" parent="kgx6SNhdby_C-QN0kG7P-1">
          <mxGeometry x="45" y="290" width="10" height="150" as="geometry" />
        </mxCell>
        <mxCell id="kgx6SNhdby_C-QN0kG7P-3" value="&lt;div style=&quot;background-color:#ffffff;color:#080808&quot;&gt;&lt;pre style=&quot;&quot;&gt;&lt;font style=&quot;font-size: 12px;&quot; face=&quot;Helvetica&quot;&gt;ZLMHttpHookSubscribe&lt;/font&gt;&lt;/pre&gt;&lt;/div&gt;" style="shape=umlLifeline;perimeter=lifelinePerimeter;whiteSpace=wrap;html=1;container=1;dropTarget=0;collapsible=0;recursiveResize=0;outlineConnect=0;portConstraint=eastwest;newEdgeStyle={&quot;curved&quot;:0,&quot;rounded&quot;:0};" vertex="1" parent="1">
          <mxGeometry x="250" y="110" width="140" height="610" as="geometry" />
        </mxCell>
        <mxCell id="kgx6SNhdby_C-QN0kG7P-25" value="" style="html=1;points=[[0,0,0,0,5],[0,1,0,0,-5],[1,0,0,0,5],[1,1,0,0,-5]];perimeter=orthogonalPerimeter;outlineConnect=0;targetShapes=umlLifeline;portConstraint=eastwest;newEdgeStyle={&quot;curved&quot;:0,&quot;rounded&quot;:0};" vertex="1" parent="kgx6SNhdby_C-QN0kG7P-3">
          <mxGeometry x="65" y="98" width="10" height="242" as="geometry" />
        </mxCell>
        <mxCell id="kgx6SNhdby_C-QN0kG7P-5" value="Web服务启动" style="html=1;verticalAlign=bottom;startArrow=oval;startFill=1;endArrow=block;startSize=8;curved=0;rounded=0;" edge="1" parent="1" target="kgx6SNhdby_C-QN0kG7P-1">
          <mxGeometry x="0.0025" width="60" relative="1" as="geometry">
            <mxPoint x="-90" y="200" as="sourcePoint" />
            <mxPoint x="-30" y="200" as="targetPoint" />
            <Array as="points">
              <mxPoint x="-60" y="200" />
            </Array>
            <mxPoint as="offset" />
          </mxGeometry>
        </mxCell>
        <mxCell id="kgx6SNhdby_C-QN0kG7P-6" value="流媒体服务器回调监听" style="text;html=1;align=center;verticalAlign=middle;resizable=0;points=[];autosize=1;strokeColor=none;fillColor=none;" vertex="1" parent="1">
          <mxGeometry x="250" y="88" width="140" height="30" as="geometry" />
        </mxCell>
        <mxCell id="kgx6SNhdby_C-QN0kG7P-8" value="注册一个on_server_started的监听事件" style="html=1;verticalAlign=bottom;endArrow=block;curved=0;rounded=0;" edge="1" parent="1" target="kgx6SNhdby_C-QN0kG7P-3">
          <mxGeometry x="-0.0453" width="80" relative="1" as="geometry">
            <mxPoint x="110" y="220" as="sourcePoint" />
            <mxPoint x="190" y="220" as="targetPoint" />
            <mxPoint as="offset" />
          </mxGeometry>
        </mxCell>
        <mxCell id="kgx6SNhdby_C-QN0kG7P-11" value="循环调用，请求流媒体服务器&lt;br&gt;直到流媒体服务返回自己的配置" style="text;html=1;align=center;verticalAlign=middle;resizable=0;points=[];autosize=1;strokeColor=none;fillColor=none;" vertex="1" parent="1">
          <mxGeometry x="140" y="230" width="190" height="40" as="geometry" />
        </mxCell>
        <mxCell id="kgx6SNhdby_C-QN0kG7P-12" value="&lt;div style=&quot;background-color:#ffffff;color:#080808&quot;&gt;&lt;pre style=&quot;&quot;&gt;&lt;font style=&quot;font-size: 12px;&quot; face=&quot;Helvetica&quot;&gt;IRedisCatchStorage&lt;/font&gt;&lt;/pre&gt;&lt;/div&gt;" style="shape=umlLifeline;perimeter=lifelinePerimeter;whiteSpace=wrap;html=1;container=1;dropTarget=0;collapsible=0;recursiveResize=0;outlineConnect=0;portConstraint=eastwest;newEdgeStyle={&quot;curved&quot;:0,&quot;rounded&quot;:0};" vertex="1" parent="1">
          <mxGeometry x="520" y="110" width="100" height="610" as="geometry" />
        </mxCell>
        <mxCell id="kgx6SNhdby_C-QN0kG7P-13" value="Redis缓存" style="text;html=1;align=center;verticalAlign=middle;resizable=0;points=[];autosize=1;strokeColor=none;fillColor=none;" vertex="1" parent="1">
          <mxGeometry x="520" y="88" width="80" height="30" as="geometry" />
        </mxCell>
        <mxCell id="kgx6SNhdby_C-QN0kG7P-14" value="1" style="endArrow=open;html=1;endSize=12;startArrow=diamondThin;startSize=14;startFill=1;edgeStyle=orthogonalEdgeStyle;align=left;verticalAlign=bottom;rounded=0;" edge="1" parent="1" source="kgx6SNhdby_C-QN0kG7P-1" target="kgx6SNhdby_C-QN0kG7P-12">
          <mxGeometry x="-1" y="3" relative="1" as="geometry">
            <mxPoint x="120" y="330" as="sourcePoint" />
            <mxPoint x="280" y="330" as="targetPoint" />
            <Array as="points">
              <mxPoint x="350" y="330" />
              <mxPoint x="350" y="330" />
            </Array>
          </mxGeometry>
        </mxCell>
        <mxCell id="kgx6SNhdby_C-QN0kG7P-15" value="将流媒体服务器返回的响应保存到redis" style="text;html=1;align=center;verticalAlign=middle;resizable=0;points=[];autosize=1;strokeColor=none;fillColor=none;" vertex="1" parent="1">
          <mxGeometry x="320" y="300" width="230" height="30" as="geometry" />
        </mxCell>
        <mxCell id="kgx6SNhdby_C-QN0kG7P-16" value="ZLMHttpHookListener" style="shape=umlLifeline;perimeter=lifelinePerimeter;whiteSpace=wrap;html=1;container=1;dropTarget=0;collapsible=0;recursiveResize=0;outlineConnect=0;portConstraint=eastwest;newEdgeStyle={&quot;curved&quot;:0,&quot;rounded&quot;:0};" vertex="1" parent="1">
          <mxGeometry x="740" y="110" width="130" height="610" as="geometry" />
        </mxCell>
        <mxCell id="kgx6SNhdby_C-QN0kG7P-17" value="流媒体服务器Hook回调" style="text;html=1;align=center;verticalAlign=middle;resizable=0;points=[];autosize=1;strokeColor=none;fillColor=none;" vertex="1" parent="1">
          <mxGeometry x="730" y="88" width="150" height="30" as="geometry" />
        </mxCell>
        <mxCell id="kgx6SNhdby_C-QN0kG7P-18" value="流媒体服务器重新启动" style="html=1;verticalAlign=bottom;startArrow=oval;startFill=1;endArrow=block;startSize=8;curved=0;rounded=0;" edge="1" parent="1">
          <mxGeometry y="-10" width="60" relative="1" as="geometry">
            <mxPoint x="1032.5" y="370" as="sourcePoint" />
            <mxPoint x="807.5" y="370" as="targetPoint" />
            <mxPoint x="1" as="offset" />
          </mxGeometry>
        </mxCell>
        <mxCell id="kgx6SNhdby_C-QN0kG7P-19" value="流媒体服务" style="shape=umlLifeline;perimeter=lifelinePerimeter;whiteSpace=wrap;html=1;container=1;dropTarget=0;collapsible=0;recursiveResize=0;outlineConnect=0;portConstraint=eastwest;newEdgeStyle={&quot;curved&quot;:0,&quot;rounded&quot;:0};" vertex="1" parent="1">
          <mxGeometry x="980" y="110" width="100" height="610" as="geometry" />
        </mxCell>
        <mxCell id="kgx6SNhdby_C-QN0kG7P-20" value="HTTP调用" style="text;html=1;align=center;verticalAlign=middle;resizable=0;points=[];autosize=1;strokeColor=none;fillColor=none;" vertex="1" parent="1">
          <mxGeometry x="880" y="370" width="80" height="30" as="geometry" />
        </mxCell>
        <mxCell id="kgx6SNhdby_C-QN0kG7P-21" value="" style="endArrow=open;startArrow=circlePlus;endFill=0;startFill=0;endSize=8;html=1;rounded=0;" edge="1" parent="1">
          <mxGeometry width="160" relative="1" as="geometry">
            <mxPoint x="112.75" y="280" as="sourcePoint" />
            <mxPoint x="1027.25" y="280" as="targetPoint" />
          </mxGeometry>
        </mxCell>
        <mxCell id="kgx6SNhdby_C-QN0kG7P-22" value="请求流媒体配置信息" style="text;html=1;align=center;verticalAlign=middle;resizable=0;points=[];autosize=1;strokeColor=none;fillColor=none;" vertex="1" parent="1">
          <mxGeometry x="345" y="258" width="130" height="30" as="geometry" />
        </mxCell>
        <mxCell id="kgx6SNhdby_C-QN0kG7P-23" value="200 OK 携带配置信息" style="endArrow=open;endSize=12;dashed=1;html=1;rounded=0;" edge="1" parent="1">
          <mxGeometry width="160" relative="1" as="geometry">
            <mxPoint x="1024.5" y="288" as="sourcePoint" />
            <mxPoint x="110" y="288" as="targetPoint" />
          </mxGeometry>
        </mxCell>
        <mxCell id="kgx6SNhdby_C-QN0kG7P-24" value="触发之前创建的监听事件" style="endArrow=block;endSize=16;endFill=0;html=1;rounded=0;" edge="1" parent="1" source="kgx6SNhdby_C-QN0kG7P-16" target="kgx6SNhdby_C-QN0kG7P-3">
          <mxGeometry width="160" relative="1" as="geometry">
            <mxPoint x="540" y="470" as="sourcePoint" />
            <mxPoint x="700" y="470" as="targetPoint" />
          </mxGeometry>
        </mxCell>
        <mxCell id="kgx6SNhdby_C-QN0kG7P-27" value="" style="endArrow=open;endFill=1;endSize=12;html=1;rounded=0;exitX=0;exitY=1;exitDx=0;exitDy=-5;exitPerimeter=0;" edge="1" parent="1" source="kgx6SNhdby_C-QN0kG7P-25" target="kgx6SNhdby_C-QN0kG7P-1">
          <mxGeometry width="160" relative="1" as="geometry">
            <mxPoint x="540" y="470" as="sourcePoint" />
            <mxPoint x="700" y="470" as="targetPoint" />
          </mxGeometry>
        </mxCell>
        <mxCell id="kgx6SNhdby_C-QN0kG7P-28" value="再次触发zLmRunning" style="text;html=1;align=center;verticalAlign=middle;resizable=0;points=[];autosize=1;strokeColor=none;fillColor=none;" vertex="1" parent="1">
          <mxGeometry x="130" y="418" width="140" height="30" as="geometry" />
        </mxCell>
        <mxCell id="kgx6SNhdby_C-QN0kG7P-29" value="更新Redis中的缓存" style="html=1;verticalAlign=bottom;startArrow=oval;startFill=1;endArrow=block;startSize=8;curved=0;rounded=0;" edge="1" parent="1" source="kgx6SNhdby_C-QN0kG7P-1">
          <mxGeometry width="60" relative="1" as="geometry">
            <mxPoint x="590" y="470" as="sourcePoint" />
            <mxPoint x="570" y="470" as="targetPoint" />
          </mxGeometry>
        </mxCell>
      </root>
    </mxGraphModel>
  </diagram>
</mxfile>
